<?xml version="1.0" encoding="UTF-8" standalone="no"?>
<!-- Created with Inkscape (http://www.inkscape.org/) -->

<svg
   xmlns:dc="http://purl.org/dc/elements/1.1/"
   xmlns:cc="http://creativecommons.org/ns#"
   xmlns:rdf="http://www.w3.org/1999/02/22-rdf-syntax-ns#"
   xmlns:svg="http://www.w3.org/2000/svg"
   xmlns="http://www.w3.org/2000/svg"
   xmlns:xlink="http://www.w3.org/1999/xlink"
   xmlns:sodipodi="http://sodipodi.sourceforge.net/DTD/sodipodi-0.dtd"
   xmlns:inkscape="http://www.inkscape.org/namespaces/inkscape"
   width="66.999794mm"
   height="18.948189mm"
   viewBox="0 0 66.999793 18.948188"
   version="1.1"
   id="svg5033"
   inkscape:version="0.92.2 (5c3e80d, 2017-08-06)"
   sodipodi:docname="logo_new.svg">
  <defs
     id="defs5027">
    <linearGradient
       inkscape:collect="always"
       id="linearGradient5216">
      <stop
         style="stop-color:#006637;stop-opacity:1;"
         offset="0"
         id="stop5212" />
      <stop
         style="stop-color:#000000;stop-opacity:0"
         offset="1"
         id="stop5214" />
    </linearGradient>
    <linearGradient
       inkscape:collect="always"
       id="linearGradient5210">
      <stop
         style="stop-color:#006637;stop-opacity:1;"
         offset="0"
         id="stop5206" />
      <stop
         style="stop-color:#000000;stop-opacity:0"
         offset="1"
         id="stop5208" />
    </linearGradient>
    <linearGradient
       inkscape:collect="always"
       id="linearGradient5204">
      <stop
         style="stop-color:#006637;stop-opacity:1;"
         offset="0"
         id="stop5200" />
      <stop
         style="stop-color:#000000;stop-opacity:0"
         offset="1"
         id="stop5202" />
    </linearGradient>
    <linearGradient
       inkscape:collect="always"
       id="linearGradient5198">
      <stop
         style="stop-color:#006637;stop-opacity:1;"
         offset="0"
         id="stop5194" />
      <stop
         style="stop-color:#000000;stop-opacity:0"
         offset="1"
         id="stop5196" />
    </linearGradient>
    <linearGradient
       id="linearGradient4618"
       inkscape:collect="always">
      <stop
         id="stop4614"
         offset="0"
         style="stop-color:#006637;stop-opacity:1;" />
      <stop
         id="stop4616"
         offset="1"
         style="stop-color:#0361f9;stop-opacity:0" />
    </linearGradient>
    <linearGradient
       gradientUnits="userSpaceOnUse"
       y2="-230.78447"
       x2="132.10725"
       y1="-199.70041"
       x1="132.10725"
       id="linearGradient4634"
       xlink:href="#linearGradient4618"
       inkscape:collect="always" />
    <linearGradient
       inkscape:collect="always"
       xlink:href="#linearGradient4618"
       id="linearGradient5162"
       gradientUnits="userSpaceOnUse"
       gradientTransform="matrix(0.74284038,0,0,-0.65540728,2.3450981,-1.5465648)"
       x1="132.10725"
       y1="-199.70041"
       x2="132.10725"
       y2="-230.78447" />
    <linearGradient
       inkscape:collect="always"
       xlink:href="#linearGradient4618"
       id="linearGradient5164"
       gradientUnits="userSpaceOnUse"
       gradientTransform="matrix(0.63143311,0,0,-0.55711276,13.409816,20.469294)"
       x1="132.10725"
       y1="-199.70041"
       x2="132.10725"
       y2="-230.78447" />
    <linearGradient
       inkscape:collect="always"
       xlink:href="#linearGradient4618"
       id="linearGradient5166"
       gradientUnits="userSpaceOnUse"
       gradientTransform="matrix(0.63143311,0,0,-0.55711276,13.409816,20.469294)"
       x1="132.10725"
       y1="-199.70041"
       x2="132.10725"
       y2="-230.78447" />
    <linearGradient
       inkscape:collect="always"
       xlink:href="#linearGradient4618"
       id="linearGradient5168"
       gradientUnits="userSpaceOnUse"
       gradientTransform="matrix(0.63143311,0,0,-0.55711276,13.409816,20.469294)"
       x1="132.10725"
       y1="-199.70041"
       x2="132.10725"
       y2="-230.78447" />
    <linearGradient
       inkscape:collect="always"
       xlink:href="#linearGradient5198"
       id="linearGradient5170"
       gradientUnits="userSpaceOnUse"
       gradientTransform="matrix(0.63143311,0,0,-0.55711276,13.409816,20.469294)"
       x1="132.10725"
       y1="-199.70041"
       x2="132.10725"
       y2="-230.78447" />
    <linearGradient
       inkscape:collect="always"
       xlink:href="#linearGradient5204"
       id="linearGradient5172"
       gradientUnits="userSpaceOnUse"
       gradientTransform="matrix(0.51272251,0,0,-0.55711276,30.183196,20.469294)"
       x1="132.10725"
       y1="-199.70041"
       x2="132.10725"
       y2="-230.78447" />
    <linearGradient
       inkscape:collect="always"
       xlink:href="#linearGradient5210"
       id="linearGradient5174"
       gradientUnits="userSpaceOnUse"
       gradientTransform="matrix(0.51272251,0,0,-0.55711276,30.183196,20.469294)"
       x1="132.10725"
       y1="-199.70041"
       x2="132.10725"
       y2="-230.78447" />
    <linearGradient
       inkscape:collect="always"
       xlink:href="#linearGradient5216"
       id="linearGradient5176"
       gradientUnits="userSpaceOnUse"
       gradientTransform="matrix(0.51272251,0,0,-0.55711276,30.183196,20.469294)"
       x1="132.10725"
       y1="-199.70041"
       x2="132.10725"
       y2="-230.78447" />
  </defs>
  <sodipodi:namedview
     id="base"
     pagecolor="#ffffff"
     bordercolor="#666666"
     borderopacity="1.0"
     inkscape:pageopacity="0.0"
     inkscape:pageshadow="2"
     inkscape:zoom="1.4"
     inkscape:cx="122.22949"
     inkscape:cy="-39.127065"
     inkscape:document-units="mm"
     inkscape:current-layer="layer1"
     showgrid="false"
     inkscape:window-width="1360"
     inkscape:window-height="705"
     inkscape:window-x="-8"
     inkscape:window-y="-8"
     inkscape:window-maximized="1" />
  <metadata
     id="metadata5030">
    <rdf:RDF>
      <cc:Work
         rdf:about="">
        <dc:format>image/svg+xml</dc:format>
        <dc:type
           rdf:resource="http://purl.org/dc/dcmitype/StillImage" />
        <dc:title></dc:title>
      </cc:Work>
    </rdf:RDF>
  </metadata>
  <g
     inkscape:label="Layer 1"
     inkscape:groupmode="layer"
     id="layer1"
     transform="translate(-51.152924,-134.3781)">
    <path
       inkscape:connector-curvature="0"
       id="path5087"
       style="font-style:normal;font-variant:normal;font-weight:bold;font-stretch:normal;font-size:medium;line-height:1.25;font-family:'Trajan Pro';-inkscape-font-specification:'Trajan Pro Bold';letter-spacing:0px;word-spacing:0px;fill:url(#linearGradient5162);fill-opacity:1;stroke:none;stroke-width:0.37397382;stroke-miterlimit:4;stroke-dasharray:none;stroke-opacity:1"
       d="m 71.825297,148.57983 c 0,-0.93706 0,-1.74171 -0.05772,-2.16949 -0.04618,-0.29538 -0.103899,-0.51946 -0.334781,-0.56021 -0.103899,-0.0204 -0.242428,-0.0408 -0.41559,-0.0408 -0.138531,0 -0.184706,-0.0306 -0.184706,-0.0815 0,-0.0713 0.08081,-0.10186 0.230883,-0.10186 0.230883,0 0.531032,0.0204 0.796547,0.0204 0.277061,0.0102 0.531032,0.0102 0.658019,0.0102 0.173162,0 0.519488,-0.0102 0.865813,-0.0305 0.334781,-0.0102 0.669562,-0.0305 0.808092,-0.0305 2.124128,0 3.082294,1.13057 3.082294,2.22042 0,1.19169 -1.154417,1.91486 -2.101039,2.20004 0.63493,0.44816 1.177506,0.94725 1.177506,1.78246 0,0.53982 -0.369414,1.5278 -2.45891,1.5278 -0.392502,0 -0.842724,-0.0305 -1.408389,-0.0305 -0.230883,0 -0.958167,0.0305 -1.570007,0.0305 -0.173164,0 -0.253973,-0.0204 -0.253973,-0.0917 0,-0.0713 0.06926,-0.0917 0.196252,-0.0917 0.161618,0 0.357869,-0.0102 0.450223,-0.0306 0.380957,-0.0713 0.473311,-0.23426 0.496398,-0.58056 0.02309,-0.32594 0.02309,-0.61113 0.02309,-2.15931 z m 1.385302,4.13527 c 0,0.11204 0.02309,0.15279 0.103899,0.17316 0.115441,0.0204 0.219338,0.0204 0.380957,0.0204 0.992799,0 1.443022,-0.89632 1.443022,-1.57874 0,-0.49908 -0.173162,-0.86576 -0.473311,-1.07965 -0.196251,-0.15278 -0.450223,-0.19352 -0.831181,-0.19352 -0.265515,0 -0.438679,0.0102 -0.542576,0.0305 -0.04618,0.0102 -0.08081,0.0305 -0.08081,0.11203 z m 2.643616,-5.35752 c 0,-1.05929 -0.877358,-1.30374 -1.396845,-1.30374 -0.265516,0 -0.531032,0.0102 -0.842726,0.12223 -0.369413,0.13241 -0.404045,0.30556 -0.404045,0.9778 v 2.41394 c 0,0.0509 0.02309,0.0713 0.06926,0.0713 0.173164,0 0.288605,0 0.4964,-0.0102 0.450223,-0.0204 0.715739,-0.0917 0.958166,-0.24445 0.877358,-0.53982 1.119786,-1.3954 1.119786,-2.0269 z" />
    <path
       inkscape:connector-curvature="0"
       id="path5089"
       style="font-style:normal;font-variant:normal;font-weight:bold;font-stretch:normal;font-size:medium;line-height:1.25;font-family:'Trajan Pro';-inkscape-font-specification:'Trajan Pro Bold';letter-spacing:0px;word-spacing:0px;fill:url(#linearGradient5164);fill-opacity:1;stroke:none;stroke-width:0.31788722;stroke-miterlimit:4;stroke-dasharray:none;stroke-opacity:1"
       d="m 79.019815,147.70824 c 0,-0.70995 0,-1.29869 -0.03925,-1.60171 -0.02943,-0.21645 -0.0785,-0.32034 -0.255135,-0.35497 -0.0785,-0.0173 -0.17663,-0.0259 -0.304197,-0.0259 -0.107945,0 -0.137381,-0.0433 -0.137381,-0.0779 0,-0.0519 0.05887,-0.0779 0.166819,-0.0779 0.343449,0 0.93222,0.0259 1.128477,0.0259 0.235507,0 0.824279,-0.0259 1.393423,-0.0259 0.09813,0 0.166819,0.0259 0.166819,0.0779 0,0.0347 -0.03925,0.0779 -0.137381,0.0779 -0.127566,0 -0.323823,0.009 -0.441577,0.0259 -0.255133,0.0347 -0.31401,0.14718 -0.343449,0.34632 -0.03925,0.31167 -0.03925,0.90041 -0.03925,1.61036 v 1.29867 c 0,1.11686 0,1.32465 0.01962,1.55842 0.01962,0.25973 0.08832,0.36362 0.323825,0.39826 0.09813,0.0173 0.166817,0.0259 0.255133,0.0259 0.08832,0 0.13738,0.0173 0.13738,0.0866 0,0.0433 -0.0687,0.0606 -0.176631,0.0606 -0.333637,0 -0.892969,-0.0173 -1.108852,-0.0173 -0.24532,0 -0.834091,0.0173 -1.157915,0.0173 -0.137379,0 -0.206069,-0.0173 -0.206069,-0.0606 0,-0.0693 0.04906,-0.0866 0.137379,-0.0866 0.107946,0 0.215883,-0.009 0.314012,-0.0347 0.186444,-0.0519 0.274758,-0.13852 0.294384,-0.3896 0.0099,-0.23377 0.0099,-0.44156 0.0099,-1.55842 z" />
    <path
       inkscape:connector-curvature="0"
       id="path5091"
       style="font-style:normal;font-variant:normal;font-weight:bold;font-stretch:normal;font-size:medium;line-height:1.25;font-family:'Trajan Pro';-inkscape-font-specification:'Trajan Pro Bold';letter-spacing:0px;word-spacing:0px;fill:url(#linearGradient5166);fill-opacity:1;stroke:none;stroke-width:0.31788722;stroke-miterlimit:4;stroke-dasharray:none;stroke-opacity:1"
       d="m 82.476387,146.30566 c -0.03925,-0.24242 -0.117753,-0.53679 -0.353261,-0.56276 -0.13738,-0.0173 -0.196257,-0.0173 -0.264948,-0.0173 -0.08831,0 -0.137379,-0.0347 -0.137379,-0.0693 0,-0.0693 0.0687,-0.0866 0.157006,-0.0866 0.274759,0 0.686899,0.0259 0.853717,0.0259 0.157005,0 0.549518,-0.0259 0.912593,-0.0259 0.127569,0 0.206068,0.0173 0.206068,0.0866 0,0.0347 -0.05885,0.0693 -0.137374,0.0693 -0.07851,0 -0.157006,0.009 -0.304202,0.0347 -0.147191,0.0259 -0.264946,0.0779 -0.264946,0.21644 0,0.12121 0.0099,0.21645 0.02945,0.34632 l 0.412141,2.87441 h 0.02942 c 0.284575,-0.51082 0.794842,-1.43721 0.863529,-1.57574 0.09813,-0.20778 0.785029,-1.3333 0.991098,-1.67096 0.137381,-0.2251 0.235505,-0.37229 0.343449,-0.37229 0.09813,0 0.147194,0.0693 0.343449,0.41557 l 1.854626,3.28999 h 0.02942 l 0.48083,-3.18609 c 0.02942,-0.20779 0.0097,-0.29436 -0.03928,-0.31168 -0.05885,-0.0174 -0.09813,-0.0433 -0.09813,-0.078 0,-0.0433 0.04906,-0.0779 0.255137,-0.0866 0.34345,-0.0173 1.570053,-0.0519 1.78594,-0.0519 0.127561,0 0.225693,0.026 0.225693,0.0866 0,0.0433 -0.05885,0.0693 -0.137381,0.0693 -0.107934,0 -0.245317,0.009 -0.490642,0.0693 -0.264945,0.0693 -0.34345,0.26838 -0.42195,0.72725 l -0.785029,4.54538 c -0.02942,0.15584 -0.127569,0.23376 -0.196256,0.23376 -0.07851,0 -0.157005,-0.0606 -0.225693,-0.18181 l -2.315832,-4.15578 -2.315831,4.10383 c -0.117756,0.19913 -0.17663,0.23376 -0.264948,0.23376 -0.0687,0 -0.147193,-0.0693 -0.166819,-0.19047 z" />
    <path
       inkscape:connector-curvature="0"
       id="path5093"
       style="font-style:normal;font-variant:normal;font-weight:bold;font-stretch:normal;font-size:medium;line-height:1.25;font-family:'Trajan Pro';-inkscape-font-specification:'Trajan Pro Bold';letter-spacing:0px;word-spacing:0px;fill:url(#linearGradient5168);fill-opacity:1;stroke:none;stroke-width:0.31788722;stroke-miterlimit:4;stroke-dasharray:none;stroke-opacity:1"
       d="m 94.571633,147.42253 c 0.03928,0 0.0687,-0.009 0.08831,-0.0519 l 0.667273,-1.48049 c 0.03928,-0.0866 -0.01963,-0.15584 -0.07851,-0.16449 -0.08832,-0.009 -0.107934,-0.0347 -0.107934,-0.0779 0,-0.0519 0.09812,-0.0519 0.25513,-0.0606 0.726148,-0.0173 1.354173,-0.0173 1.658371,-0.0173 0.323825,0 0.372886,0.0173 0.372886,0.078 0,0.0519 -0.03928,0.0779 -0.117756,0.0779 -0.09812,0 -0.196255,0.009 -0.323816,0.0259 -0.157007,0.026 -0.402331,0.12122 -0.735968,0.78787 -0.549517,1.11687 -1.992007,4.1298 -2.198075,4.53672 -0.08831,0.1645 -0.127569,0.23376 -0.255137,0.23376 -0.08832,0 -0.157,-0.0866 -0.25513,-0.29436 l -2.256958,-4.63196 c -0.17663,-0.37229 -0.323817,-0.5974 -0.716335,-0.64934 -0.0785,0 -0.176631,-0.009 -0.25513,-0.009 -0.0687,0 -0.09813,-0.0347 -0.09813,-0.0779 0,-0.0606 0.04905,-0.078 0.157006,-0.078 0.451392,0 0.912591,0.0259 1.000909,0.0259 0.274761,0 0.677085,-0.0259 0.96166,-0.0259 0.0883,0 0.137381,0.0173 0.137381,0.078 0,0.0433 -0.01963,0.0779 -0.127569,0.0779 h -0.127568 c -0.26495,0 -0.343449,0.0779 -0.343449,0.20778 0,0.0866 0.03928,0.26839 0.127569,0.45021 l 0.461204,0.98699 c 0.01963,0.0433 0.02942,0.0519 0.0785,0.0519 z m -1.854626,0.40691 c -0.02942,0 -0.04905,0.0173 -0.02942,0.0519 l 0.834092,1.86144 c 0.0097,0.0259 0.01963,0.0693 0.04906,0.0693 0.01963,0 0.02942,-0.0433 0.03928,-0.0693 l 0.814467,-1.8701 c 0.0097,-0.0259 0,-0.0433 -0.03928,-0.0433 z" />
    <path
       inkscape:connector-curvature="0"
       id="path5095"
       style="font-style:normal;font-variant:normal;font-weight:bold;font-stretch:normal;font-size:medium;line-height:1.25;font-family:'Trajan Pro';-inkscape-font-specification:'Trajan Pro Bold';letter-spacing:0px;word-spacing:0px;fill:url(#linearGradient5170);fill-opacity:1;stroke:none;stroke-width:0.31788722;stroke-miterlimit:4;stroke-dasharray:none;stroke-opacity:1"
       d="m 99.21357,145.4745 c 0.461204,0 1.03035,0.0433 1.44248,0.30303 0.62802,0.38961 0.86353,0.83115 0.86353,1.3766 0,0.66665 -0.35326,1.22941 -1.49155,1.78352 l -0.353256,0.17316 c -0.775215,0.38094 -0.912597,0.64068 -0.912597,0.96968 0,0.50215 0.559329,0.78786 1.177536,0.78786 0.559327,0 0.834087,-0.20779 0.961667,-0.34631 0.18644,-0.19048 0.22569,-0.41558 0.22569,-0.48484 0,-0.0866 0.0294,-0.12987 0.0883,-0.12987 0.0687,0 0.1079,0.0779 0.1079,0.23376 0,0.58008 0.0294,0.78786 0.0294,0.88311 0,0.0519 -0.0393,0.0779 -0.11776,0.0952 -0.22571,0.0519 -0.66728,0.12121 -1.22661,0.12121 -1.197162,0 -2.178447,-0.58008 -2.178447,-1.4805 0,-0.64933 0.333637,-1.14283 1.354177,-1.67096 l 0.500456,-0.25974 c 0.765384,-0.39826 0.853724,-0.7186 0.853724,-1.03894 0,-0.51947 -0.4514,-0.93505 -1.197174,-0.93505 -0.53971,0 -1.187359,0.18182 -1.373802,0.72726 -0.04905,0.12987 -0.0785,0.28571 -0.0785,0.38094 0,0.052 -0.0097,0.12122 -0.08831,0.12122 -0.06868,0 -0.107934,-0.0779 -0.107934,-0.19048 -0.0097,-0.1212 -0.04906,-0.58007 -0.04906,-0.97834 0,-0.16449 0.02942,-0.19912 0.16682,-0.25107 0.372892,-0.14718 0.902785,-0.19048 1.40324,-0.19048 z" />
    <path
       inkscape:connector-curvature="0"
       id="path5097"
       style="font-style:normal;font-variant:normal;font-weight:bold;font-stretch:normal;font-size:medium;line-height:1.25;font-family:'Trajan Pro';-inkscape-font-specification:'Trajan Pro Bold';letter-spacing:0px;word-spacing:0px;fill:url(#linearGradient5172);fill-opacity:1;stroke:none;stroke-width:0.28645116;stroke-miterlimit:4;stroke-dasharray:none;stroke-opacity:1"
       d="m 105.49751,145.4745 c 1.80874,0 2.9402,1.32465 2.9402,3.01294 0,1.68828 -1.09959,2.7532 -2.86848,2.7532 -2.12746,0 -2.94019,-1.62768 -2.94019,-2.88307 0,-1.30733 0.82866,-2.88307 2.86847,-2.88307 z m 0.28685,0.39826 c -1.32269,0 -2.11949,1.19479 -2.11949,2.70992 0,1.81815 0.91632,2.26836 1.69719,2.26836 1.13145,0 2.03184,-1.00432 2.03184,-2.63199 0,-2.09521 -1.11552,-2.34629 -1.60954,-2.34629 z" />
    <path
       inkscape:connector-curvature="0"
       id="path5099"
       style="font-style:normal;font-variant:normal;font-weight:bold;font-stretch:normal;font-size:medium;line-height:1.25;font-family:'Trajan Pro';-inkscape-font-specification:'Trajan Pro Bold';letter-spacing:0px;word-spacing:0px;fill:url(#linearGradient5174);fill-opacity:1;stroke:none;stroke-width:0.28645116;stroke-miterlimit:4;stroke-dasharray:none;stroke-opacity:1"
       d="m 110.68369,148.28831 c 0,0.0519 0.0159,0.0606 0.0477,0.0606 0.11952,0 0.94819,-0.009 1.12348,-0.0259 0.21515,-0.0173 0.30279,-0.1645 0.33466,-0.2684 0.0319,-0.0866 0.0477,-0.17315 0.0477,-0.2251 0,-0.0519 0.0239,-0.10389 0.0637,-0.10389 0.0717,0 0.0797,0.10389 0.0797,0.16449 0,0.0519 0.008,0.3896 0.0239,0.53679 0.0239,0.23376 0.0558,0.43289 0.0558,0.47619 0,0.0433 -0.0159,0.0693 -0.0399,0.0693 -0.0399,0 -0.0558,-0.0347 -0.0956,-0.078 -0.0637,-0.0952 -0.16732,-0.12121 -0.29482,-0.12987 -0.10358,-0.009 -0.1992,-0.009 -0.31871,-0.009 l -0.98007,-0.009 c -0.0399,0 -0.0477,0.0259 -0.0477,0.0693 v 1.78352 c 0,0.0866 0.0239,0.10389 0.0637,0.10389 l 1.16333,-0.0259 c 0.26293,-0.009 0.3984,-0.12122 0.4462,-0.22511 0.0477,-0.1039 0.0399,-0.21645 0.0399,-0.27705 0,-0.0866 0.0399,-0.12121 0.0876,-0.12121 0.0477,0 0.0637,0.0866 0.0717,0.14718 0.008,0.0866 0.0239,0.51948 0.0319,0.59739 0.0239,0.19047 0.0558,0.27706 0.0558,0.329 0,0.0347 -0.0239,0.0693 -0.0478,0.0693 -0.0399,0 -0.0718,-0.0347 -0.11156,-0.0433 -0.0718,-0.0173 -0.15936,-0.0259 -0.28684,-0.0347 -0.16733,-0.009 -1.72108,0 -1.992,0 -0.1992,0 -0.6454,0.0173 -1.00397,0.0173 -0.11156,0 -0.16733,-0.0173 -0.16733,-0.0693 0,-0.0519 0.0558,-0.0779 0.11952,-0.0779 0.10359,0 0.22311,-0.009 0.27889,-0.0259 0.2231,-0.0606 0.28683,-0.14718 0.30278,-0.39826 0.008,-0.23376 0.008,-0.44155 0.008,-1.55842 v -1.29868 c 0,-0.70994 0,-1.25538 -0.0319,-1.56707 -0.0239,-0.21645 -0.0638,-0.35497 -0.20717,-0.3896 -0.0638,-0.0173 -0.14343,-0.026 -0.24701,-0.026 -0.0797,0 -0.10358,-0.0433 -0.10358,-0.0779 0,-0.0606 0.0477,-0.0779 0.14341,-0.0779 0.26295,0 0.70916,0.0259 0.89243,0.0259 0.18326,0 0.67727,-0.0259 1.12349,-0.0259 0.10357,0 0.15139,0.0259 0.15139,0.0779 0,0.0347 -0.0319,0.0779 -0.11952,0.0779 -0.0956,0 -0.24702,0.009 -0.34263,0.026 -0.20717,0.0347 -0.25498,0.17315 -0.27888,0.3896 -0.0319,0.31169 -0.0399,0.83116 -0.0399,1.5411 z" />
    <path
       inkscape:connector-curvature="0"
       id="path5101"
       style="font-style:normal;font-variant:normal;font-weight:bold;font-stretch:normal;font-size:medium;line-height:1.25;font-family:'Trajan Pro';-inkscape-font-specification:'Trajan Pro Bold';letter-spacing:0px;word-spacing:0px;fill:url(#linearGradient5176);fill-opacity:1;stroke:none;stroke-width:0.28645116;stroke-miterlimit:4;stroke-dasharray:none;stroke-opacity:1"
       d="m 115.18884,147.70824 c 0,-0.67532 0,-1.25539 -0.0319,-1.56708 -0.0238,-0.21645 -0.0637,-0.35497 -0.20717,-0.3896 -0.0558,-0.0173 -0.14343,-0.0259 -0.24701,-0.0259 -0.0876,0 -0.11154,-0.0433 -0.11154,-0.0779 0,-0.0519 0.0477,-0.0779 0.13545,-0.0779 0.27888,0 0.75696,0.0259 0.91632,0.0259 0.19919,0 0.66932,-0.0259 1.13146,-0.0259 0.0797,0 0.13545,0.0259 0.13545,0.0779 0,0.0347 -0.0319,0.0779 -0.11155,0.0779 -0.10359,0 -0.26295,0.009 -0.35857,0.0259 -0.20715,0.0347 -0.247,0.17315 -0.2709,0.38095 -0.0319,0.32034 -0.0399,0.90041 -0.0399,1.57573 v 2.9783 l 0.88446,-0.0173 c 0.62947,-0.009 0.81273,-0.23376 0.82867,-0.42423 l 0.008,-0.0779 c 0.008,-0.11256 0.0239,-0.14719 0.0797,-0.14719 0.0399,0 0.0558,0.0433 0.0637,0.12122 0,0.19047 0.0159,0.73591 0.0159,0.89176 0,0.11255 -0.008,0.15584 -0.0558,0.15584 -0.0238,0 -0.0797,-0.0173 -0.19122,-0.0347 -0.10359,-0.0173 -0.25498,-0.0347 -0.47808,-0.0347 h -2.84458 c -0.23108,0 -0.49402,0.009 -0.70119,0.0347 -0.17529,0.0259 -0.24702,0.0866 -0.30278,0.0866 -0.0399,0 -0.0637,-0.0433 -0.0797,-0.13852 -0.0159,-0.0606 -0.15138,-0.77056 -0.15138,-0.89177 0,-0.0779 0.0159,-0.12121 0.0638,-0.12121 0.0477,0 0.0637,0.0347 0.0797,0.0952 0.0159,0.0519 0.0477,0.14718 0.11951,0.25108 0.10358,0.16449 0.27092,0.21644 0.67728,0.2251 l 1.0438,0.0259 z" />
    <g
       inkscape:export-ydpi="96"
       inkscape:export-xdpi="96"
       inkscape:export-filename="C:\Users\yokow\Desktop\text137.png"
       transform="matrix(0.23284402,0,0,0.23284402,42.300119,120.14189)"
       id="g4520">
      <path
         style="fill:#b2d136;stroke-width:0.14639542"
         d="m 57.412749,115.39325 c -0.387106,-0.34358 -4.326298,-5.52738 -4.328568,-5.6962 -7.19e-4,-0.0531 1.271493,-1.05067 2.827131,-2.21677 2.877811,-2.1572 3.504163,-2.73775 3.853785,-3.57206 0.385914,-0.92092 -0.292505,-1.83033 -1.95726,-2.62369 -1.525105,-0.72681 -2.107554,-1.58431 -2.125557,-3.12934 -0.02947,-2.52912 2.829248,-4.15292 5.080272,-2.88567 0.867672,0.48848 1.37757,1.31678 1.600641,2.60013 0.326212,1.87677 0.857446,2.56213 1.971118,2.543 0.91966,-0.0158 1.241025,-0.20512 4.501079,-2.65142 1.554268,-1.1663 2.890452,-2.08067 2.969302,-2.03195 0.2491,0.15396 4.13285,5.37942 4.2739,5.7504 0.0741,0.19496 0.13476,0.44747 0.13476,0.56115 0,0.34617 -0.65871,0.66433 -1.67273,0.80793 -1.30467,0.18477 -2.15644,0.61587 -2.94109,1.4886 -1.875467,2.08597 -1.216735,5.39277 1.32167,6.6347 2.28061,1.1158 4.70297,0.21261 5.83658,-2.17619 0.84707,-1.78502 1.39238,-1.96585 2.34463,-0.77754 l 0.45437,0.56704 -0.41167,0.31134 c -1.8699,1.41417 -12.491986,6.82593 -13.397781,6.82593 -0.07593,0 -0.181152,-0.28737 -0.233827,-0.6386 -0.129357,-0.86262 -0.897273,-2.09905 -1.667352,-2.68464 -0.82867,-0.63014 -2.049593,-0.98352 -3.006469,-0.87019 -1.56996,0.18594 -3.038887,1.32336 -3.538754,2.74013 -0.259799,0.73635 -0.881307,1.4533 -1.25983,1.4533 -0.141481,0 -0.424238,-0.14822 -0.62835,-0.32939 z"
         id="path4510"
         inkscape:connector-curvature="0" />
      <path
         style="fill:#b2d136;stroke-width:0.14639542"
         d="m 82.547372,94.40803 c -1.12927,-0.41599 -2.08278,-1.8127 -2.08916,-3.06022 -0.003,-0.62379 -0.6381,-1.90848 -1.0893,-2.20412 -0.48672,-0.3189 -1.50802,-0.20142 -2.25958,0.25993 -0.2915,0.17893 -1.7459,1.24059 -3.23203,2.35924 -1.80849,1.36131 -2.76087,1.99208 -2.87991,1.90739 -0.0978,-0.0696 -1.105293,-1.36532 -2.238806,-2.87943 -2.219934,-2.96529 -2.406093,-3.38237 -1.712553,-3.8368 0.19161,-0.12554 0.750692,-0.29306 1.242415,-0.37225 1.107048,-0.17828 1.548027,-0.34065 2.264823,-0.83391 1.236701,-0.85102 2.019961,-2.74173 1.718381,-4.14797 -0.56416,-2.63058 -2.991875,-4.16333 -5.4585,-3.44627 -1.130436,0.32863 -2.230219,1.33644 -2.779004,2.54659 -0.441743,0.97411 -0.863007,1.49788 -1.20474,1.49788 -0.1146,0 -0.406015,-0.16631 -0.647594,-0.36959 -0.547844,-0.46098 -4.269217,-5.40195 -4.264222,-5.66172 0.002,-0.10477 1.319536,-1.17506 2.927823,-2.37843 2.910044,-2.17737 3.568566,-2.82657 3.740816,-3.68784 0.176078,-0.88038 -0.623465,-1.75464 -2.256258,-2.46711 -1.6533,-0.72142 -2.367711,-2.70966 -1.580822,-4.39949 0.420042,-0.90205 1.004166,-1.41298 2.072234,-1.81259 0.994163,-0.37197 0.986738,-0.37191 1.965258,-0.0143 1.413718,0.51673 2.119625,1.44598 2.353076,3.09754 0.155114,1.0974 0.529187,1.85437 1.083367,2.19231 0.987628,0.60225 1.641574,0.30374 5.247696,-2.39541 1.59991,-1.19753 2.96864,-2.15686 3.04161,-2.13186 0.073,0.025 1.08958,1.31624 2.25914,2.86939 2.29542,3.04827 2.47862,3.4532 1.77178,3.91634 -0.19509,0.12783 -0.7909,0.29418 -1.32402,0.36968 -2.37863,0.33685 -3.93891,2.00747 -3.94371,4.22257 -0.006,2.53423 2.26917,4.63295 4.71038,4.34603 1.51383,-0.17792 3.18581,-1.45872 3.56755,-2.73287 0.2012,-0.67154 0.88393,-1.45363 1.26896,-1.45363 0.40636,0 0.83586,0.48026 2.98456,3.33722 1.54198,2.05024 1.89298,2.60331 1.77295,2.79365 -0.0823,0.13053 -1.39417,1.16956 -2.91526,2.30896 -3.63941,2.72616 -4.20853,3.52416 -3.38495,4.74628 0.21669,0.32153 0.73654,0.70384 1.49475,1.09926 1.32811,0.69264 2.00938,1.39218 2.27309,2.33407 0.73508,2.62545 -1.9188,5.03234 -4.50024,4.08143 z"
         id="path4512"
         inkscape:connector-curvature="0" />
      <path
         style="fill:#7e7e7e;stroke-width:0.14639542"
         d="m 74.155272,110.31914 c -1.37427,-0.43738 -2.16167,-1.30024 -2.47911,-2.71668 -0.18441,-0.82289 -0.0321,-1.50239 0.53144,-2.37156 0.50406,-0.77738 1.27914,-1.20828 2.47904,-1.37821 1.07819,-0.15269 1.9831,-0.5593 2.32222,-1.04346 0.28209,-0.40275 0.2972,-1.42822 0.0304,-2.06022 -0.1094,-0.2591 -1.16344,-1.75175 -2.34232,-3.31702 -1.17888,-1.56526 -2.14342,-2.91713 -2.14342,-3.00415 0,-0.20001 5.21084,-4.10701 5.75203,-4.31276 0.33024,-0.12556 0.45077,-0.10384 0.67655,0.12195 0.25044,0.25043 0.59633,1.42273 0.59983,2.03296 0.003,0.51076 0.70529,1.73159 1.3097,2.27648 0.93425,0.84226 1.64722,1.11327 2.93434,1.11536 0.85004,0.001 1.26593,-0.0764 1.84184,-0.3446 2.24048,-1.04325 3.18901,-3.65953 2.12911,-5.87256 -0.51879,-1.08321 -1.00165,-1.54752 -2.21951,-2.13425 -0.52045,-0.25073 -1.06155,-0.55857 -1.20246,-0.68406 -0.35278,-0.31421 -0.32085,-0.84286 0.0732,-1.21162 0.59478,-0.55662 5.34327,-4.09502 5.49546,-4.09502 0.0818,0 1.10462,1.27392 2.27297,2.83093 1.16835,1.55702 2.33064,3.00458 2.58285,3.21681 1.42606,1.19994 2.74739,0.65974 3.70458,-1.51456 0.56673,-1.28737 1.663828,-2.04445 2.962608,-2.04445 1.45471,0 2.75916,0.96305 3.13997,2.31818 0.17839,0.63484 0.0554,0.93836 -1.06102,2.61767 -0.9403,1.41441 -1.25772,1.64287 -2.29855,1.65434 -0.20129,0.002 -0.64083,0.12882 -0.97675,0.28133 -1.050748,0.47708 -1.394038,1.33422 -1.007578,2.51576 l 0.24419,0.74656 -0.95077,0.98482 c -0.52292,0.54166 -1.63628,1.65091 -2.47412,2.46501 l -1.52335,1.48018 -0.71828,-0.22298 c -0.92705,-0.28779 -2.32343,-0.18988 -3.17562,0.22266 -1.55546,0.75298 -2.47708,2.25932 -2.5039,4.09246 l -0.0162,1.10714 -1.53715,1.10443 c -0.84543,0.60743 -2.08411,1.4608 -2.75261,1.89637 l -1.21546,0.79193 -0.68768,-0.66536 c -0.8338,-0.80675 -1.1751,-0.992 -1.82757,-0.992 -0.81005,0 -1.42972,0.52949 -2.03883,1.74215 -0.62268,1.23965 -1.00045,1.69072 -1.72896,2.06443 -0.62454,0.32037 -1.6899,0.4683 -2.20104,0.30561 z"
         id="path4514"
         inkscape:connector-curvature="0" />
      <path
         style="fill:#7e7e7e;stroke-width:0.14639542"
         d="m 52.310415,107.63851 c -0.278398,-0.34451 -1.266577,-1.6475 -2.195953,-2.89552 -1.96282,-2.63579 -2.620728,-3.22226 -3.609389,-3.21745 -0.929559,0.004 -1.793441,0.81529 -2.190082,2.05541 -0.188641,0.58979 -1.015441,1.44562 -1.758227,1.81995 -0.368534,0.18573 -0.756504,0.23638 -1.492093,0.19482 -0.820801,-0.0464 -1.103979,-0.13412 -1.624702,-0.5034 -1.162152,-0.82416 -1.706612,-2.42475 -1.269203,-3.73118 0.41637,-1.24359 1.356984,-1.9723 2.844827,-2.20393 1.711882,-0.26652 2.487384,-0.78574 2.647532,-1.77262 0.133484,-0.82257 -0.441808,-1.85109 -2.716662,-4.85689 -1.135166,-1.49991 -2.061354,-2.77426 -2.058197,-2.83187 0.008,-0.14602 5.213134,-4.02048 5.670221,-4.22066 0.20498,-0.0898 0.490994,-0.13228 0.635588,-0.0945 0.283895,0.0742 0.626509,0.98533 0.781922,2.0793 0.286207,2.01464 2.09819,3.51342 4.252173,3.51717 2.184807,0.004 3.908916,-1.4167 4.343017,-3.57825 0.21605,-1.07578 -0.0477,-2.3411 -0.670619,-3.21725 -0.576328,-0.81062 -0.963338,-1.11432 -2.258352,-1.77222 -1.122424,-0.57022 -1.351027,-0.90216 -0.995258,-1.44513 0.122912,-0.18759 1.255871,-1.12312 2.517688,-2.07897 2.744266,-2.07882 3.015049,-2.26408 3.237569,-2.21499 0.09451,0.0209 0.975011,1.12489 1.956671,2.45343 2.773828,3.75398 3.60637,4.47719 4.727931,4.10704 0.673118,-0.22215 1.157283,-0.77108 1.815218,-2.05803 0.452145,-0.88442 0.701857,-1.18979 1.286458,-1.57322 0.634763,-0.41634 0.847022,-0.47579 1.698703,-0.47579 0.855322,0 1.059077,0.0577 1.680953,0.47579 1.508403,1.01415 2.009163,2.75667 1.226763,4.26877 -0.531319,1.02684 -1.282132,1.50674 -2.765328,1.76751 -1.822843,0.32049 -2.494108,0.84329 -2.49984,1.94697 -0.005,0.93611 0.226446,1.35411 2.206892,3.98809 0.997444,1.3266 1.993787,2.65653 2.214091,2.9554 l 0.400549,0.54339 -1.116167,0.84737 c -0.613892,0.46605 -1.500199,1.14381 -1.969574,1.50614 -1.291575,0.99702 -2.512942,1.84539 -2.811019,1.95256 -0.625628,0.22494 -1.028108,-0.37895 -1.193529,-1.79081 -0.166285,-1.41921 -1.039457,-2.67434 -2.332775,-3.3532 -0.637818,-0.33479 -0.924397,-0.39113 -1.989515,-0.39113 -1.067849,0 -1.351054,0.056 -1.996519,0.39468 -0.80565,0.42275 -1.626363,1.27752 -2.056581,2.14193 -0.41326,0.83034 -0.371906,2.81757 0.0766,3.68109 0.522221,1.00544 1.166228,1.60189 2.306441,2.13614 1.206747,0.56543 1.415684,0.77094 1.351245,1.32907 -0.03705,0.32094 -0.361309,0.65267 -1.511132,1.54595 -0.805174,0.62553 -1.793344,1.36804 -2.195931,1.65002 -0.402587,0.28198 -1.038934,0.74504 -1.414103,1.02903 l -0.682127,0.51635 z"
         id="path4516"
         inkscape:connector-curvature="0" />
      <path
         style="fill:#006637;stroke-width:0.14639542"
         d="m 41.508597,123.17108 c -1.090438,-2.13744 -0.880145,-4.84142 0.646263,-8.30975 0.861874,-1.95837 2.681409,-4.92789 4.047033,-6.60485 l 0.298041,-0.36599 -0.143299,0.3976 c -0.07881,0.21868 -0.277325,0.66031 -0.441133,0.9814 -1.165947,2.28544 -1.603859,4.98958 -1.094075,6.75598 1.254546,4.34699 7.076119,5.5015 16.175356,3.20785 4.497145,-1.1336 10.396639,-3.52934 15.655759,-6.35768 12.07331,-6.49298 22.71818,-15.41777 27.946828,-23.43097 0.9338,-1.4311 2.25287,-4.10626 2.56256,-5.19704 1.21658,-4.28502 -0.0599,-7.16596 -3.72133,-8.39894 -0.56926,-0.1917 -1.07612,-0.38964 -1.12634,-0.43986 -0.1741,-0.1741 2.67263,-0.0886 4.07177,0.12235 2.32311,0.35019 3.85838,1.0463 5.06491,2.2965 0.61874,0.64113 1.36127,2.0738 1.36127,2.62648 0,0.1635 0.0659,0.25654 0.14639,0.20678 0.0937,-0.0579 0.1464,0.41615 0.1464,1.31756 0,0.783 -0.0577,1.37237 -0.13,1.32769 -0.0715,-0.0442 -0.17596,0.2262 -0.23215,0.60085 -0.13942,0.92975 -0.87008,2.95823 -1.5598,4.33037 -4.83068,9.61029 -18.502568,21.64207 -34.018128,29.93722 -6.56415,2.43945 -29.74743,15.75005 -35.656325,4.99645 z"
         id="path4518"
         inkscape:connector-curvature="0"
         sodipodi:nodetypes="csccccsssscccscscsccccc" />
    </g>
    <path
       inkscape:connector-curvature="0"
       id="path5104"
       style="font-style:normal;font-variant:normal;font-weight:bold;font-stretch:normal;font-size:medium;line-height:1.25;font-family:'Trajan Pro';-inkscape-font-specification:'Trajan Pro Bold';letter-spacing:0px;word-spacing:0px;fill:#006637;fill-opacity:1;stroke:#006637;stroke-width:0.37397382;stroke-miterlimit:4;stroke-dasharray:none;stroke-opacity:1"
       d="m 71.825297,142.09693 c 0,0.93706 0,1.74171 -0.05772,2.1695 -0.04618,0.29538 -0.103899,0.51945 -0.334781,0.56019 -0.103899,0.0204 -0.242428,0.0408 -0.41559,0.0408 -0.138531,0 -0.184706,0.0305 -0.184706,0.0815 0,0.0713 0.08081,0.10185 0.230883,0.10185 0.230883,0 0.531032,-0.0204 0.796547,-0.0204 0.277061,-0.0102 0.531032,-0.0102 0.658019,-0.0102 0.173162,0 0.519488,0.0102 0.865813,0.0305 0.334781,0.0102 0.669562,0.0305 0.808092,0.0305 2.124128,0 3.082294,-1.13059 3.082294,-2.22042 0,-1.1917 -1.154417,-1.91486 -2.101039,-2.20006 0.63493,-0.44815 1.177506,-0.94724 1.177506,-1.78244 0,-0.53983 -0.369414,-1.52781 -2.45891,-1.52781 -0.392502,0 -0.842724,0.0305 -1.408389,0.0305 -0.230883,0 -0.958167,-0.0305 -1.570007,-0.0305 -0.173164,0 -0.253973,0.0204 -0.253973,0.0917 0,0.0713 0.06926,0.0917 0.196252,0.0917 0.161618,0 0.357869,0.0102 0.450223,0.0305 0.380957,0.0713 0.473311,0.23427 0.496398,0.58058 0.02309,0.32593 0.02309,0.61112 0.02309,2.1593 z m 1.385302,-4.13527 c 0,-0.11204 0.02309,-0.15278 0.103899,-0.17315 0.115441,-0.0204 0.219338,-0.0204 0.380957,-0.0204 0.992799,0 1.443022,0.89632 1.443022,1.57875 0,0.49908 -0.173162,0.86576 -0.473311,1.07965 -0.196251,0.15278 -0.450223,0.19352 -0.831181,0.19352 -0.265515,0 -0.438679,-0.0102 -0.542576,-0.0305 -0.04618,-0.0102 -0.08081,-0.0305 -0.08081,-0.11204 z m 2.643616,5.35752 c 0,1.05929 -0.877358,1.30374 -1.396845,1.30374 -0.265516,0 -0.531032,-0.0102 -0.842726,-0.12223 -0.369413,-0.13241 -0.404045,-0.30557 -0.404045,-0.9778 v -2.41394 c 0,-0.0509 0.02309,-0.0713 0.06926,-0.0713 0.173164,0 0.288605,0 0.4964,0.0102 0.450223,0.0204 0.715739,0.0917 0.958166,0.24445 0.877358,0.53983 1.119786,1.3954 1.119786,2.02689 z" />
    <path
       inkscape:connector-curvature="0"
       id="path5106"
       style="font-style:normal;font-variant:normal;font-weight:bold;font-stretch:normal;font-size:medium;line-height:1.25;font-family:'Trajan Pro';-inkscape-font-specification:'Trajan Pro Bold';letter-spacing:0px;word-spacing:0px;fill:#006637;fill-opacity:1;stroke:#006637;stroke-width:0.31788722;stroke-miterlimit:4;stroke-dasharray:none;stroke-opacity:1"
       d="m 79.019815,142.94219 c 0,0.70994 0,1.29868 -0.03925,1.6017 -0.02943,0.21645 -0.0785,0.32034 -0.255135,0.35497 -0.0785,0.0173 -0.17663,0.0259 -0.304197,0.0259 -0.107945,0 -0.137381,0.0433 -0.137381,0.0779 0,0.0519 0.05887,0.0779 0.166819,0.0779 0.343449,0 0.93222,-0.026 1.128477,-0.026 0.235507,0 0.824279,0.026 1.393423,0.026 0.09813,0 0.166819,-0.026 0.166819,-0.0779 0,-0.0347 -0.03925,-0.0779 -0.137381,-0.0779 -0.127566,0 -0.323823,-0.009 -0.441577,-0.0259 -0.255133,-0.0347 -0.31401,-0.14718 -0.343449,-0.34631 -0.03925,-0.31168 -0.03925,-0.90042 -0.03925,-1.61036 v -1.29869 c 0,-1.11685 0,-1.32465 0.01962,-1.55841 0.01962,-0.25973 0.08832,-0.36363 0.323825,-0.39826 0.09813,-0.0173 0.166817,-0.0259 0.255133,-0.0259 0.08832,0 0.13738,-0.0173 0.13738,-0.0866 0,-0.0433 -0.0687,-0.0606 -0.176631,-0.0606 -0.333637,0 -0.892969,0.0173 -1.108852,0.0173 -0.24532,0 -0.834091,-0.0173 -1.157915,-0.0173 -0.137379,0 -0.206069,0.0173 -0.206069,0.0606 0,0.0693 0.04906,0.0866 0.137379,0.0866 0.107946,0 0.215883,0.009 0.314012,0.0347 0.186444,0.0519 0.274758,0.13853 0.294384,0.38961 0.0099,0.23375 0.0099,0.44155 0.0099,1.55841 z" />
    <path
       inkscape:connector-curvature="0"
       id="path5108"
       style="font-style:normal;font-variant:normal;font-weight:bold;font-stretch:normal;font-size:medium;line-height:1.25;font-family:'Trajan Pro';-inkscape-font-specification:'Trajan Pro Bold';letter-spacing:0px;word-spacing:0px;fill:#006637;fill-opacity:1;stroke:#006637;stroke-width:0.31788722;stroke-miterlimit:4;stroke-dasharray:none;stroke-opacity:1"
       d="m 82.476387,144.34476 c -0.03925,0.24242 -0.117753,0.53679 -0.353261,0.56276 -0.13738,0.0173 -0.196257,0.0173 -0.264948,0.0173 -0.08831,0 -0.137379,0.0347 -0.137379,0.0693 0,0.0693 0.0687,0.0866 0.157006,0.0866 0.274759,0 0.686899,-0.0259 0.853717,-0.0259 0.157005,0 0.549518,0.0259 0.912593,0.0259 0.127569,0 0.206068,-0.0173 0.206068,-0.0866 0,-0.0347 -0.05885,-0.0693 -0.137374,-0.0693 -0.07851,0 -0.157006,-0.009 -0.304202,-0.0347 -0.147191,-0.0259 -0.264946,-0.0779 -0.264946,-0.21645 0,-0.12121 0.0099,-0.21645 0.02945,-0.34631 l 0.412141,-2.87441 h 0.02942 c 0.284575,0.51081 0.794842,1.4372 0.863529,1.57572 0.09813,0.2078 0.785029,1.33332 0.991098,1.67097 0.137381,0.22511 0.235505,0.37229 0.343449,0.37229 0.09813,0 0.147194,-0.0693 0.343449,-0.41557 l 1.854626,-3.28999 h 0.02942 l 0.48083,3.18609 c 0.02942,0.20779 0.0097,0.29436 -0.03928,0.31168 -0.05885,0.0173 -0.09813,0.0433 -0.09813,0.0779 0,0.0433 0.04906,0.0779 0.255137,0.0866 0.34345,0.0173 1.570053,0.0519 1.78594,0.0519 0.127561,0 0.225693,-0.0259 0.225693,-0.0866 0,-0.0433 -0.05885,-0.0693 -0.137381,-0.0693 -0.107934,0 -0.245317,-0.009 -0.490642,-0.0693 -0.264945,-0.0693 -0.34345,-0.2684 -0.42195,-0.72726 l -0.785029,-4.54538 c -0.02942,-0.15584 -0.127569,-0.23376 -0.196256,-0.23376 -0.07851,0 -0.157005,0.0606 -0.225693,0.18181 l -2.315832,4.15578 -2.315831,-4.10383 c -0.117756,-0.19913 -0.17663,-0.23376 -0.264948,-0.23376 -0.0687,0 -0.147193,0.0693 -0.166819,0.19048 z" />
    <path
       inkscape:connector-curvature="0"
       id="path5110"
       style="font-style:normal;font-variant:normal;font-weight:bold;font-stretch:normal;font-size:medium;line-height:1.25;font-family:'Trajan Pro';-inkscape-font-specification:'Trajan Pro Bold';letter-spacing:0px;word-spacing:0px;fill:#006637;fill-opacity:1;stroke:#006637;stroke-width:0.31788722;stroke-miterlimit:4;stroke-dasharray:none;stroke-opacity:1"
       d="m 94.571633,143.22789 c 0.03928,0 0.0687,0.009 0.08831,0.0519 l 0.667273,1.48049 c 0.03928,0.0866 -0.01963,0.15584 -0.07851,0.1645 -0.08832,0.009 -0.107934,0.0347 -0.107934,0.0779 0,0.0519 0.09812,0.0519 0.25513,0.0606 0.726148,0.0173 1.354173,0.0173 1.658371,0.0173 0.323825,0 0.372886,-0.0173 0.372886,-0.078 0,-0.0519 -0.03928,-0.0779 -0.117756,-0.0779 -0.09812,0 -0.196255,-0.009 -0.323816,-0.0259 -0.157007,-0.0259 -0.402331,-0.12122 -0.735968,-0.78787 -0.549517,-1.11686 -1.992007,-4.1298 -2.198075,-4.53672 -0.08831,-0.16449 -0.127569,-0.23375 -0.255137,-0.23375 -0.08832,0 -0.157,0.0866 -0.25513,0.29436 l -2.256958,4.63195 c -0.17663,0.37229 -0.323817,0.5974 -0.716335,0.64934 -0.0785,0 -0.176631,0.009 -0.25513,0.009 -0.0687,0 -0.09813,0.0347 -0.09813,0.0779 0,0.0606 0.04905,0.078 0.157006,0.078 0.451392,0 0.912591,-0.0259 1.000909,-0.0259 0.274761,0 0.677085,0.0259 0.96166,0.0259 0.0883,0 0.137381,-0.0173 0.137381,-0.078 0,-0.0433 -0.01963,-0.0779 -0.127569,-0.0779 h -0.127568 c -0.26495,0 -0.343449,-0.0779 -0.343449,-0.20779 0,-0.0866 0.03928,-0.26839 0.127569,-0.4502 l 0.461204,-0.987 c 0.01963,-0.0433 0.02942,-0.0519 0.0785,-0.0519 z m -1.854626,-0.40691 c -0.02942,0 -0.04905,-0.0173 -0.02942,-0.0519 l 0.834092,-1.86144 c 0.0097,-0.0259 0.01963,-0.0693 0.04906,-0.0693 0.01963,0 0.02942,0.0433 0.03928,0.0693 l 0.814467,1.8701 c 0.0097,0.0259 0,0.0433 -0.03928,0.0433 z" />
    <path
       inkscape:connector-curvature="0"
       id="path5112"
       style="font-style:normal;font-variant:normal;font-weight:bold;font-stretch:normal;font-size:medium;line-height:1.25;font-family:'Trajan Pro';-inkscape-font-specification:'Trajan Pro Bold';letter-spacing:0px;word-spacing:0px;fill:#808080;fill-opacity:1;stroke:#808080;stroke-width:0.31788722;stroke-miterlimit:4;stroke-dasharray:none;stroke-opacity:1"
       d="m 99.21357,145.17591 c 0.461204,0 1.03035,-0.0433 1.44248,-0.30302 0.62802,-0.3896 0.86353,-0.83116 0.86353,-1.3766 0,-0.66666 -0.35326,-1.22942 -1.49155,-1.78352 l -0.353256,-0.17316 c -0.775215,-0.38094 -0.912597,-0.64068 -0.912597,-0.96968 0,-0.50215 0.559329,-0.78786 1.177536,-0.78786 0.559327,0 0.834087,0.20779 0.961667,0.34632 0.18644,0.19046 0.22569,0.41557 0.22569,0.48483 0,0.0866 0.0294,0.12987 0.0883,0.12987 0.0687,0 0.1079,-0.0779 0.1079,-0.23377 0,-0.58007 0.0294,-0.78786 0.0294,-0.8831 0,-0.0519 -0.0393,-0.0779 -0.11776,-0.0952 -0.22571,-0.0519 -0.66728,-0.12121 -1.22661,-0.12121 -1.197162,0 -2.178447,0.58008 -2.178447,1.48049 0,0.64934 0.333637,1.14284 1.354177,1.67096 l 0.500456,0.25975 c 0.765384,0.39826 0.853724,0.7186 0.853724,1.03894 0,0.51948 -0.4514,0.93505 -1.197174,0.93505 -0.53971,0 -1.187359,-0.18182 -1.373802,-0.72726 -0.04905,-0.12987 -0.0785,-0.28571 -0.0785,-0.38095 0,-0.0519 -0.0097,-0.12121 -0.08831,-0.12121 -0.06868,0 -0.107934,0.0779 -0.107934,0.19047 -0.0097,0.12122 -0.04906,0.58008 -0.04906,0.97835 0,0.16449 0.02942,0.19912 0.16682,0.25107 0.372892,0.14719 0.902785,0.19047 1.40324,0.19047 z" />
    <path
       inkscape:connector-curvature="0"
       id="path5114"
       style="font-style:normal;font-variant:normal;font-weight:bold;font-stretch:normal;font-size:medium;line-height:1.25;font-family:'Trajan Pro';-inkscape-font-specification:'Trajan Pro Bold';letter-spacing:0px;word-spacing:0px;fill:#808080;fill-opacity:1;stroke:#808080;stroke-width:0.28645116;stroke-miterlimit:4;stroke-dasharray:none;stroke-opacity:1"
       d="m 105.49751,145.17591 c 1.80874,0 2.9402,-1.32465 2.9402,-3.01293 0,-1.68829 -1.09959,-2.7532 -2.86848,-2.7532 -2.12746,0 -2.94019,1.62767 -2.94019,2.88307 0,1.30733 0.82866,2.88306 2.86847,2.88306 z m 0.28685,-0.39826 c -1.32269,0 -2.11949,-1.19479 -2.11949,-2.70991 0,-1.81815 0.91632,-2.26836 1.69719,-2.26836 1.13145,0 2.03184,1.00432 2.03184,2.63199 0,2.09521 -1.11552,2.34628 -1.60954,2.34628 z" />
    <path
       inkscape:connector-curvature="0"
       id="path5116"
       style="font-style:normal;font-variant:normal;font-weight:bold;font-stretch:normal;font-size:medium;line-height:1.25;font-family:'Trajan Pro';-inkscape-font-specification:'Trajan Pro Bold';letter-spacing:0px;word-spacing:0px;fill:#808080;fill-opacity:1;stroke:#808080;stroke-width:0.28645116;stroke-miterlimit:4;stroke-dasharray:none;stroke-opacity:1"
       d="m 110.68369,142.36211 c 0,-0.0519 0.0159,-0.0606 0.0477,-0.0606 0.11952,0 0.94819,0.009 1.12348,0.0259 0.21515,0.0173 0.30279,0.16449 0.33466,0.26839 0.0319,0.0866 0.0477,0.17316 0.0477,0.22511 0,0.0519 0.0239,0.10389 0.0637,0.10389 0.0717,0 0.0797,-0.10389 0.0797,-0.1645 0,-0.0519 0.008,-0.38961 0.0239,-0.53679 0.0239,-0.23377 0.0558,-0.43289 0.0558,-0.47618 0,-0.0433 -0.0159,-0.0693 -0.0399,-0.0693 -0.0399,0 -0.0558,0.0347 -0.0956,0.0779 -0.0637,0.0952 -0.16732,0.12122 -0.29482,0.12987 -0.10358,0.009 -0.1992,0.009 -0.31871,0.009 l -0.98007,0.009 c -0.0399,0 -0.0477,-0.0259 -0.0477,-0.0693 v -1.78351 c 0,-0.0866 0.0239,-0.10389 0.0637,-0.10389 l 1.16333,0.0259 c 0.26293,0.009 0.3984,0.12122 0.4462,0.22511 0.0477,0.1039 0.0399,0.21645 0.0399,0.27705 0,0.0866 0.0399,0.12121 0.0876,0.12121 0.0477,0 0.0637,-0.0866 0.0717,-0.14718 0.008,-0.0866 0.0239,-0.51947 0.0319,-0.5974 0.0239,-0.19046 0.0558,-0.27705 0.0558,-0.32899 0,-0.0347 -0.0239,-0.0693 -0.0478,-0.0693 -0.0399,0 -0.0718,0.0347 -0.11156,0.0433 -0.0718,0.0173 -0.15936,0.0259 -0.28684,0.0347 -0.16733,0.009 -1.72108,0 -1.992,0 -0.1992,0 -0.6454,-0.0173 -1.00397,-0.0173 -0.11156,0 -0.16733,0.0173 -0.16733,0.0693 0,0.0519 0.0558,0.0779 0.11952,0.0779 0.10359,0 0.22311,0.009 0.27889,0.0259 0.2231,0.0606 0.28683,0.14718 0.30278,0.39826 0.008,0.23376 0.008,0.44154 0.008,1.55841 v 1.29868 c 0,0.70995 0,1.25538 -0.0319,1.56707 -0.0239,0.21645 -0.0638,0.35497 -0.20717,0.3896 -0.0638,0.0173 -0.14343,0.0259 -0.24701,0.0259 -0.0797,0 -0.10358,0.0433 -0.10358,0.0779 0,0.0606 0.0477,0.0779 0.14341,0.0779 0.26295,0 0.70916,-0.0259 0.89243,-0.0259 0.18326,0 0.67727,0.0259 1.12349,0.0259 0.10357,0 0.15139,-0.0259 0.15139,-0.0779 0,-0.0347 -0.0319,-0.0779 -0.11952,-0.0779 -0.0956,0 -0.24702,-0.009 -0.34263,-0.0259 -0.20717,-0.0347 -0.25498,-0.17315 -0.27888,-0.3896 -0.0319,-0.31169 -0.0399,-0.83116 -0.0399,-1.5411 z" />
    <path
       inkscape:connector-curvature="0"
       id="path5118"
       style="font-style:normal;font-variant:normal;font-weight:bold;font-stretch:normal;font-size:medium;line-height:1.25;font-family:'Trajan Pro';-inkscape-font-specification:'Trajan Pro Bold';letter-spacing:0px;word-spacing:0px;fill:#808080;fill-opacity:1;stroke:#808080;stroke-width:0.28645116;stroke-miterlimit:4;stroke-dasharray:none;stroke-opacity:1"
       d="m 115.18884,142.94219 c 0,0.6753 0,1.25539 -0.0319,1.56707 -0.0238,0.21645 -0.0637,0.35497 -0.20717,0.3896 -0.0558,0.0173 -0.14343,0.0259 -0.24701,0.0259 -0.0876,0 -0.11154,0.0433 -0.11154,0.0779 0,0.0519 0.0477,0.0779 0.13545,0.0779 0.27888,0 0.75696,-0.026 0.91632,-0.026 0.19919,0 0.66932,0.026 1.13146,0.026 0.0797,0 0.13545,-0.026 0.13545,-0.0779 0,-0.0347 -0.0319,-0.0779 -0.11155,-0.0779 -0.10359,0 -0.26295,-0.009 -0.35857,-0.0259 -0.20715,-0.0347 -0.247,-0.17315 -0.2709,-0.38094 -0.0319,-0.32034 -0.0399,-0.90043 -0.0399,-1.57573 v -2.97831 l 0.88446,0.0173 c 0.62947,0.009 0.81273,0.23376 0.82867,0.42423 l 0.008,0.0779 c 0.008,0.11255 0.0239,0.14718 0.0797,0.14718 0.0399,0 0.0558,-0.0433 0.0637,-0.12121 0,-0.19047 0.0159,-0.73592 0.0159,-0.89176 0,-0.11255 -0.008,-0.15584 -0.0558,-0.15584 -0.0238,0 -0.0797,0.0173 -0.19122,0.0347 -0.10359,0.0173 -0.25498,0.0347 -0.47808,0.0347 h -2.84458 c -0.23108,0 -0.49402,-0.009 -0.70119,-0.0347 -0.17529,-0.026 -0.24702,-0.0866 -0.30278,-0.0866 -0.0399,0 -0.0637,0.0433 -0.0797,0.13853 -0.0159,0.0606 -0.15138,0.77054 -0.15138,0.89175 0,0.078 0.0159,0.12121 0.0638,0.12121 0.0477,0 0.0637,-0.0347 0.0797,-0.0952 0.0159,-0.0519 0.0477,-0.14719 0.11951,-0.25108 0.10358,-0.1645 0.27092,-0.21645 0.67728,-0.22511 l 1.0438,-0.0259 z" />
    <g
       aria-label="Push the Web to the Limit"
       style="font-style:normal;font-weight:normal;font-size:3.02293372px;line-height:1.25;font-family:sans-serif;letter-spacing:0px;word-spacing:0px;fill:#4d4d4d;fill-opacity:1;stroke:none;stroke-width:0.07557334"
       id="text64"
       transform="matrix(0.82588499,0,0,0.82588499,3.6650516,20.054998)">
      <path
         d="m 82.43286,155.18046 v 0.66422 q 0,0.0443 0.02066,0.0694 0.02214,0.0236 0.0738,0.0369 v 0.0472 h -0.628794 v -0.0472 q 0.05314,-0.0148 0.0738,-0.0384 0.02066,-0.0236 0.02066,-0.0679 v -1.70631 q 0,-0.0458 -0.02066,-0.0694 -0.02066,-0.0236 -0.0738,-0.0384 v -0.0472 h 1.257588 q 0.21993,0 0.348346,0.0295 0.129891,0.0295 0.228786,0.10184 0.101847,0.0753 0.159413,0.19779 0.05756,0.12694 0.05756,0.26864 0,0.2037 -0.109227,0.35721 -0.09447,0.13136 -0.250927,0.18745 -0.154984,0.0546 -0.433956,0.0546 z m 0,-0.33211 h 0.671599 q 0.200742,0 0.281924,-0.0428 0.05166,-0.028 0.08266,-0.0886 0.03247,-0.062 0.03247,-0.1358 0,-0.0723 -0.03247,-0.13284 -0.031,-0.062 -0.08266,-0.09 -0.07971,-0.0428 -0.281924,-0.0428 H 82.43286 Z"
         style="font-style:normal;font-variant:normal;font-weight:normal;font-stretch:normal;font-family:'Copperplate Gothic Bold';-inkscape-font-specification:'Copperplate Gothic Bold, ';fill:#4d4d4d;fill-opacity:1;stroke-width:0.07557334"
         id="path5121"
         inkscape:connector-curvature="0" />
      <path
         d="m 85.910415,154.49557 v 0.8753 q 0,0.29963 -0.118084,0.43986 -0.190409,0.22288 -0.717356,0.22288 -0.352774,0 -0.569752,-0.10775 -0.15646,-0.0782 -0.214026,-0.22288 -0.05314,-0.13285 -0.05314,-0.33211 v -0.8753 q 0,-0.0457 -0.02066,-0.0694 -0.02066,-0.0236 -0.0738,-0.0399 v -0.0413 h 0.585988 v 0.0413 q -0.05461,0.0148 -0.07528,0.0399 -0.02066,0.0236 -0.02066,0.0694 v 0.79559 q 0,0.13875 0.02362,0.21255 0.02509,0.0738 0.08561,0.12104 0.121035,0.0959 0.349822,0.0959 0.228786,0 0.349822,-0.0959 0.05904,-0.0472 0.08266,-0.12104 0.02362,-0.0738 0.02362,-0.21255 v -0.79559 q 0,-0.0457 -0.02066,-0.0694 -0.01919,-0.0236 -0.0738,-0.0399 v -0.0413 h 0.550564 v 0.0413 q -0.05314,0.0148 -0.0738,0.0399 -0.02066,0.0236 -0.02066,0.0694 z"
         style="font-style:normal;font-variant:normal;font-weight:normal;font-stretch:normal;font-family:'Copperplate Gothic Bold';-inkscape-font-specification:'Copperplate Gothic Bold, ';fill:#4d4d4d;fill-opacity:1;stroke-width:0.07557334"
         id="path5123"
         inkscape:connector-curvature="0" />
      <path
         d="m 87.855838,154.4941 -0.199266,0.38524 -0.03543,-0.0192 q 0,-0.0487 -0.031,-0.0768 -0.08413,-0.0753 -0.247975,-0.12399 -0.16384,-0.0487 -0.332109,-0.0487 -0.143176,0 -0.253879,0.0399 -0.159413,0.0576 -0.159413,0.16679 0,0.0723 0.07675,0.10332 0.07675,0.0295 0.296685,0.0472 l 0.233214,0.0177 q 0.305541,0.0236 0.464953,0.11808 0.08856,0.0531 0.146129,0.1417 0.07233,0.11071 0.07233,0.24945 0,0.25241 -0.227311,0.39854 -0.216978,0.14022 -0.587464,0.14022 -0.373439,0 -0.721785,-0.15794 -0.02362,-0.0103 -0.03985,-0.0103 -0.02952,0 -0.05461,0.0354 l -0.0369,-0.0148 0.169745,-0.40444 0.0369,0.0148 q 0,0.009 0,0.0118 0,0.0384 0.02952,0.0649 0.0738,0.0649 0.255355,0.11366 0.181553,0.0472 0.358678,0.0472 0.156461,0 0.280448,-0.0413 0.153509,-0.0502 0.153509,-0.16236 0,-0.09 -0.106275,-0.12546 -0.07085,-0.0236 -0.255356,-0.0399 l -0.231738,-0.0192 q -0.187457,-0.0148 -0.286352,-0.0384 -0.09889,-0.0236 -0.172697,-0.0694 -0.09447,-0.059 -0.147604,-0.16089 -0.05314,-0.10184 -0.05314,-0.22288 0,-0.27159 0.233215,-0.41477 0.21255,-0.12989 0.525471,-0.12989 0.169745,0 0.315873,0.0384 0.147604,0.0369 0.351298,0.13137 0.06052,0.028 0.08413,0.028 0.02362,0 0.06052,-0.0325 z"
         style="font-style:normal;font-variant:normal;font-weight:normal;font-stretch:normal;font-family:'Copperplate Gothic Bold';-inkscape-font-specification:'Copperplate Gothic Bold, ';fill:#4d4d4d;fill-opacity:1;stroke-width:0.07557334"
         id="path5125"
         inkscape:connector-curvature="0" />
      <path
         d="m 89.538525,155.27935 h -0.922526 v 0.56828 q 0,0.0458 0.02066,0.0708 0.02066,0.0236 0.0738,0.0399 v 0.0399 h -0.584513 v -0.0413 q 0.05166,-0.0133 0.07233,-0.0384 0.02214,-0.0251 0.02214,-0.0708 v -1.35206 q 0,-0.0457 -0.02066,-0.0694 -0.02066,-0.0236 -0.0738,-0.0399 v -0.0413 h 0.584513 v 0.0413 q -0.05314,0.0148 -0.0738,0.0399 -0.02066,0.0236 -0.02066,0.0694 v 0.48415 h 0.922526 v -0.48415 q 0,-0.0457 -0.02066,-0.0694 -0.01919,-0.0236 -0.0738,-0.0399 v -0.0413 h 0.584512 v 0.0413 q -0.05314,0.0148 -0.0738,0.0399 -0.02066,0.0236 -0.02066,0.0694 v 1.35206 q 0,0.0458 0.02066,0.0708 0.02067,0.0236 0.0738,0.0399 v 0.0399 h -0.584512 v -0.0413 q 0.05166,-0.0133 0.07233,-0.0384 0.02214,-0.0251 0.02214,-0.0708 z"
         style="font-style:normal;font-variant:normal;font-weight:normal;font-stretch:normal;font-family:'Copperplate Gothic Bold';-inkscape-font-specification:'Copperplate Gothic Bold, ';fill:#4d4d4d;fill-opacity:1;stroke-width:0.07557334"
         id="path5127"
         inkscape:connector-curvature="0" />
      <path
         d="m 91.990231,154.64465 v 1.20298 q 0,0.0458 0.02066,0.0708 0.02066,0.0236 0.0738,0.0399 v 0.0399 h -0.584513 v -0.0413 q 0.05166,-0.0133 0.07233,-0.0384 0.02214,-0.0251 0.02214,-0.0708 v -1.20298 h -0.487094 q -0.04723,0 -0.07233,0.0221 -0.02362,0.0207 -0.03838,0.0738 h -0.03985 v -0.49005 h 0.04133 q 0.01328,0.0517 0.0369,0.0738 0.02509,0.0207 0.07233,0.0207 h 1.369767 q 0.04723,0 0.07085,-0.0207 0.02509,-0.0207 0.03985,-0.0738 h 0.03985 v 0.49005 h -0.03985 q -0.01476,-0.0531 -0.03985,-0.0738 -0.02362,-0.0221 -0.07085,-0.0221 z"
         style="font-style:normal;font-variant:normal;font-weight:normal;font-stretch:normal;font-family:'Copperplate Gothic Bold';-inkscape-font-specification:'Copperplate Gothic Bold, ';fill:#4d4d4d;fill-opacity:1;stroke-width:0.07557334"
         id="path5129"
         inkscape:connector-curvature="0" />
      <path
         d="m 94.229387,155.27935 h -0.922526 v 0.56828 q 0,0.0458 0.02067,0.0708 0.02066,0.0236 0.0738,0.0399 v 0.0399 h -0.584513 v -0.0413 q 0.05166,-0.0133 0.07233,-0.0384 0.02214,-0.0251 0.02214,-0.0708 v -1.35206 q 0,-0.0457 -0.02066,-0.0694 -0.02066,-0.0236 -0.0738,-0.0399 v -0.0413 h 0.584513 v 0.0413 q -0.05314,0.0148 -0.0738,0.0399 -0.02067,0.0236 -0.02067,0.0694 v 0.48415 h 0.922526 v -0.48415 q 0,-0.0457 -0.02066,-0.0694 -0.01919,-0.0236 -0.0738,-0.0399 v -0.0413 h 0.584513 v 0.0413 q -0.05314,0.0148 -0.0738,0.0399 -0.02066,0.0236 -0.02066,0.0694 v 1.35206 q 0,0.0458 0.02066,0.0708 0.02067,0.0236 0.0738,0.0399 v 0.0399 h -0.58453 v -0.0413 q 0.05166,-0.0133 0.07233,-0.0384 0.02214,-0.0251 0.02214,-0.0708 z"
         style="font-style:normal;font-variant:normal;font-weight:normal;font-stretch:normal;font-family:'Copperplate Gothic Bold';-inkscape-font-specification:'Copperplate Gothic Bold, ';fill:#4d4d4d;fill-opacity:1;stroke-width:0.07557334"
         id="path5131"
         inkscape:connector-curvature="0" />
      <path
         d="m 95.506163,155.29559 v 0.40296 h 1.049465 q 0.04576,0 0.06937,-0.0207 0.02509,-0.0207 0.03985,-0.0753 h 0.04133 v 0.49005 h -0.04133 q -0.01328,-0.0517 -0.03838,-0.0738 -0.02509,-0.0207 -0.07085,-0.0207 h -1.539511 v -0.0413 q 0.05166,-0.0133 0.07233,-0.0384 0.02214,-0.0251 0.02214,-0.0708 v -1.35206 q 0,-0.0457 -0.02067,-0.0694 -0.02066,-0.0236 -0.0738,-0.0399 v -0.0413 h 1.493754 q 0.04723,0 0.07085,-0.0207 0.02509,-0.0207 0.03985,-0.0738 h 0.03985 v 0.49005 h -0.03985 q -0.01476,-0.0546 -0.03985,-0.0753 -0.02362,-0.0207 -0.07085,-0.0207 h -1.003708 v 0.36311 h 0.622889 q 0.04576,0 0.06937,-0.0207 0.02509,-0.0207 0.04133,-0.0738 h 0.03985 v 0.47824 h -0.03985 q -0.01476,-0.0531 -0.03985,-0.0738 -0.02362,-0.0221 -0.07085,-0.0221 z"
         style="font-style:normal;font-variant:normal;font-weight:normal;font-stretch:normal;font-family:'Copperplate Gothic Bold';-inkscape-font-specification:'Copperplate Gothic Bold, ';fill:#4d4d4d;fill-opacity:1;stroke-width:0.07557334"
         id="path5133"
         inkscape:connector-curvature="0" />
      <path
         d="m 99.27745,154.57971 -0.460525,1.16312 q -0.03985,0.0886 -0.03985,0.11218 0,0.0679 0.109227,0.0959 v 0.0472 H 98.23832 v -0.0472 q 0.09889,-0.0192 0.09889,-0.10037 0,-0.0221 -0.04133,-0.13137 l -0.577132,-1.48637 q -0.04281,-0.1107 -0.07823,-0.14908 -0.03395,-0.0399 -0.100371,-0.0531 v -0.0472 h 0.699644 v 0.0472 q -0.09299,0.0207 -0.09299,0.0871 0,0.034 0.02362,0.0974 l 0.398531,1.0657 0.431004,-1.07161 q 0.02804,-0.0694 0.02804,-0.0915 0,-0.0679 -0.09889,-0.0871 v -0.0472 h 0.732117 v 0.0472 q -0.100371,0.0266 -0.100371,0.0959 0,0.0236 0.02509,0.0886 l 0.41034,1.07013 0.397058,-1.05242 q 0.031,-0.0782 0.031,-0.11661 0,-0.065 -0.10627,-0.0856 v -0.0472 h 0.69226 v 0.0472 q -0.0738,0.0207 -0.10184,0.0531 -0.028,0.0325 -0.0738,0.14908 l -0.57713,1.48637 q -0.0413,0.10628 -0.0413,0.1417 0,0.0723 0.1048,0.09 v 0.0472 h -0.656838 v -0.0472 q 0.103323,-0.0162 0.103323,-0.0989 0,-0.0281 -0.04576,-0.13285 z"
         style="font-style:normal;font-variant:normal;font-weight:normal;font-stretch:normal;font-family:'Copperplate Gothic Bold';-inkscape-font-specification:'Copperplate Gothic Bold, ';fill:#4d4d4d;fill-opacity:1;stroke-width:0.07557334"
         id="path5135"
         inkscape:connector-curvature="0" />
      <path
         d="m 101.5786,155.29559 v 0.40296 h 1.04946 q 0.0458,0 0.0694,-0.0207 0.0251,-0.0207 0.0399,-0.0753 h 0.0413 v 0.49005 h -0.0413 q -0.0133,-0.0517 -0.0384,-0.0738 -0.0251,-0.0207 -0.0708,-0.0207 h -1.53951 v -0.0413 q 0.0517,-0.0133 0.0723,-0.0384 0.0221,-0.0251 0.0221,-0.0708 v -1.35206 q 0,-0.0457 -0.0207,-0.0694 -0.0207,-0.0236 -0.0738,-0.0399 v -0.0413 h 1.49376 q 0.0472,0 0.0708,-0.0207 0.0251,-0.0207 0.0399,-0.0738 h 0.0399 v 0.49005 h -0.0399 q -0.0148,-0.0546 -0.0399,-0.0753 -0.0236,-0.0207 -0.0708,-0.0207 h -1.00371 v 0.36311 h 0.62289 q 0.0458,0 0.0694,-0.0207 0.0251,-0.0207 0.0413,-0.0738 h 0.0399 v 0.47824 h -0.0399 q -0.0148,-0.0531 -0.0399,-0.0738 -0.0236,-0.0221 -0.0708,-0.0221 z"
         style="font-style:normal;font-variant:normal;font-weight:normal;font-stretch:normal;font-family:'Copperplate Gothic Bold';-inkscape-font-specification:'Copperplate Gothic Bold, ';fill:#4d4d4d;fill-opacity:1;stroke-width:0.07557334"
         id="path5137"
         inkscape:connector-curvature="0" />
      <path
         d="m 104.55282,155.10961 q 0.12251,0.0561 0.18008,0.11218 0.10775,0.10627 0.10775,0.28635 0,0.24207 -0.18303,0.37344 -0.16236,0.1166 -0.44724,0.1166 h -1.1764 v -0.0413 q 0.0517,-0.0133 0.0723,-0.0384 0.0221,-0.0251 0.0221,-0.0708 v -1.35206 q 0,-0.0457 -0.0207,-0.0694 -0.0207,-0.0236 -0.0738,-0.0399 v -0.0413 h 1.15721 q 0.30407,0 0.44577,0.10922 0.15055,0.11514 0.15055,0.31588 0,0.11808 -0.0531,0.19336 -0.0517,0.0753 -0.18156,0.14613 z m -1.0288,-0.14466 h 0.60075 q 0.1417,0 0.20074,-0.0354 0.059,-0.0369 0.059,-0.12546 0,-0.0871 -0.059,-0.12252 -0.0576,-0.0369 -0.20074,-0.0369 h -0.60075 z m 0,0.7336 h 0.61551 q 0.29816,0 0.29816,-0.21698 0,-0.21698 -0.29816,-0.21698 h -0.61551 z"
         style="font-style:normal;font-variant:normal;font-weight:normal;font-stretch:normal;font-family:'Copperplate Gothic Bold';-inkscape-font-specification:'Copperplate Gothic Bold, ';fill:#4d4d4d;fill-opacity:1;stroke-width:0.07557334"
         id="path5139"
         inkscape:connector-curvature="0" />
      <path
         d="m 106.75065,154.64465 v 1.20298 q 0,0.0458 0.0207,0.0708 0.0207,0.0236 0.0738,0.0399 v 0.0399 h -0.58452 v -0.0413 q 0.0517,-0.0133 0.0723,-0.0384 0.0221,-0.0251 0.0221,-0.0708 v -1.20298 h -0.48709 q -0.0472,0 -0.0723,0.0221 -0.0236,0.0207 -0.0384,0.0738 h -0.0399 v -0.49005 h 0.0413 q 0.0133,0.0517 0.0369,0.0738 0.0251,0.0207 0.0723,0.0207 h 1.36976 q 0.0472,0 0.0708,-0.0207 0.0251,-0.0207 0.0399,-0.0738 h 0.0399 v 0.49005 h -0.0399 q -0.0148,-0.0531 -0.0399,-0.0738 -0.0236,-0.0221 -0.0708,-0.0221 z"
         style="font-style:normal;font-variant:normal;font-weight:normal;font-stretch:normal;font-family:'Copperplate Gothic Bold';-inkscape-font-specification:'Copperplate Gothic Bold, ';fill:#4d4d4d;fill-opacity:1;stroke-width:0.07557334"
         id="path5141"
         inkscape:connector-curvature="0" />
      <path
         d="m 108.48352,154.30959 q 0.39411,0 0.65684,0.20074 0.3144,0.24207 0.3144,0.67456 0,0.40591 -0.3144,0.64798 -0.25978,0.20074 -0.65389,0.20074 -0.3941,0 -0.65388,-0.20074 -0.31587,-0.24207 -0.31587,-0.66127 0,-0.42362 0.31587,-0.66127 0.26126,-0.19631 0.65093,-0.20074 z m 0.001,0.31292 q -0.25536,0 -0.41625,0.16384 -0.14908,0.15351 -0.14908,0.38525 0,0.23026 0.14908,0.38377 0.16089,0.16532 0.41772,0.16532 0.25536,0 0.41625,-0.16532 0.14908,-0.15203 0.14908,-0.37639 0,-0.24355 -0.14908,-0.39263 -0.16237,-0.16088 -0.41772,-0.16384 z"
         style="font-style:normal;font-variant:normal;font-weight:normal;font-stretch:normal;font-family:'Copperplate Gothic Bold';-inkscape-font-specification:'Copperplate Gothic Bold, ';fill:#4d4d4d;fill-opacity:1;stroke-width:0.07557334"
         id="path5143"
         inkscape:connector-curvature="0" />
      <path
         d="m 111.37952,154.64465 v 1.20298 q 0,0.0458 0.0207,0.0708 0.0207,0.0236 0.0738,0.0399 v 0.0399 h -0.58451 v -0.0413 q 0.0517,-0.0133 0.0723,-0.0384 0.0221,-0.0251 0.0221,-0.0708 v -1.20298 h -0.4871 q -0.0472,0 -0.0723,0.0221 -0.0236,0.0207 -0.0384,0.0738 h -0.0399 v -0.49005 h 0.0413 q 0.0133,0.0517 0.0369,0.0738 0.0251,0.0207 0.0723,0.0207 h 1.36977 q 0.0472,0 0.0709,-0.0207 0.0251,-0.0207 0.0399,-0.0738 h 0.0399 v 0.49005 h -0.0399 q -0.0148,-0.0531 -0.0399,-0.0738 -0.0236,-0.0221 -0.0709,-0.0221 z"
         style="font-style:normal;font-variant:normal;font-weight:normal;font-stretch:normal;font-family:'Copperplate Gothic Bold';-inkscape-font-specification:'Copperplate Gothic Bold, ';fill:#4d4d4d;fill-opacity:1;stroke-width:0.07557334"
         id="path5145"
         inkscape:connector-curvature="0" />
      <path
         d="m 113.61867,155.27935 h -0.92252 v 0.56828 q 0,0.0458 0.0207,0.0708 0.0207,0.0236 0.0738,0.0399 v 0.0399 h -0.58451 v -0.0413 q 0.0517,-0.0133 0.0723,-0.0384 0.0221,-0.0251 0.0221,-0.0708 v -1.35206 q 0,-0.0457 -0.0207,-0.0694 -0.0207,-0.0236 -0.0738,-0.0399 v -0.0413 h 0.58451 v 0.0413 q -0.0531,0.0148 -0.0738,0.0399 -0.0207,0.0236 -0.0207,0.0694 v 0.48415 h 0.92252 v -0.48415 q 0,-0.0457 -0.0207,-0.0694 -0.0192,-0.0236 -0.0738,-0.0399 v -0.0413 h 0.58451 v 0.0413 q -0.0531,0.0148 -0.0738,0.0399 -0.0207,0.0236 -0.0207,0.0694 v 1.35206 q 0,0.0458 0.0207,0.0708 0.0207,0.0236 0.0738,0.0399 v 0.0399 h -0.58451 v -0.0413 q 0.0517,-0.0133 0.0723,-0.0384 0.0221,-0.0251 0.0221,-0.0708 z"
         style="font-style:normal;font-variant:normal;font-weight:normal;font-stretch:normal;font-family:'Copperplate Gothic Bold';-inkscape-font-specification:'Copperplate Gothic Bold, ';fill:#4d4d4d;fill-opacity:1;stroke-width:0.07557334"
         id="path5147"
         inkscape:connector-curvature="0" />
      <path
         d="m 114.89545,155.29559 v 0.40296 h 1.04946 q 0.0458,0 0.0694,-0.0207 0.0251,-0.0207 0.0399,-0.0753 h 0.0413 v 0.49005 h -0.0413 q -0.0133,-0.0517 -0.0384,-0.0738 -0.0251,-0.0207 -0.0709,-0.0207 h -1.53951 v -0.0413 q 0.0517,-0.0133 0.0723,-0.0384 0.0221,-0.0251 0.0221,-0.0708 v -1.35206 q 0,-0.0457 -0.0207,-0.0694 -0.0207,-0.0236 -0.0738,-0.0399 v -0.0413 h 1.49376 q 0.0472,0 0.0709,-0.0207 0.0251,-0.0207 0.0399,-0.0738 h 0.0399 v 0.49005 h -0.0399 q -0.0148,-0.0546 -0.0399,-0.0753 -0.0236,-0.0207 -0.0709,-0.0207 h -1.00371 v 0.36311 h 0.62289 q 0.0457,0 0.0694,-0.0207 0.0251,-0.0207 0.0413,-0.0738 h 0.0399 v 0.47824 h -0.0399 q -0.0148,-0.0531 -0.0399,-0.0738 -0.0236,-0.0221 -0.0709,-0.0221 z"
         style="font-style:normal;font-variant:normal;font-weight:normal;font-stretch:normal;font-family:'Copperplate Gothic Bold';-inkscape-font-specification:'Copperplate Gothic Bold, ';fill:#4d4d4d;fill-opacity:1;stroke-width:0.07557334"
         id="path5149"
         inkscape:connector-curvature="0" />
      <path
         d="m 117.67483,155.66607 h 1.2384 q 0.0458,0 0.0694,-0.0207 0.0236,-0.0207 0.0384,-0.0738 h 0.0472 v 0.52104 h -0.0472 q -0.0148,-0.0531 -0.0384,-0.0738 -0.0236,-0.0207 -0.0694,-0.0207 h -1.77272 v -0.0472 q 0.0531,-0.0148 0.0738,-0.0384 0.0207,-0.0236 0.0207,-0.0694 v -1.70483 q 0,-0.0458 -0.0207,-0.0694 -0.0207,-0.0236 -0.0738,-0.0384 v -0.0472 h 0.62879 v 0.0472 q -0.0531,0.0133 -0.0738,0.0384 -0.0207,0.0236 -0.0207,0.0694 z"
         style="font-style:normal;font-variant:normal;font-weight:normal;font-stretch:normal;font-family:'Copperplate Gothic Bold';-inkscape-font-specification:'Copperplate Gothic Bold, ';fill:#4d4d4d;fill-opacity:1;stroke-width:0.07557334"
         id="path5151"
         inkscape:connector-curvature="0" />
      <path
         d="m 119.73096,154.49557 v 1.35206 q 0,0.0458 0.0207,0.0708 0.0207,0.0236 0.0738,0.0399 v 0.0399 h -0.58451 v -0.0413 q 0.0517,-0.0133 0.0723,-0.0384 0.0221,-0.0251 0.0221,-0.0708 v -1.35206 q 0,-0.0457 -0.0207,-0.0694 -0.0207,-0.0236 -0.0738,-0.0399 v -0.0413 h 0.58451 v 0.0413 q -0.0531,0.0148 -0.0738,0.0399 -0.0207,0.0236 -0.0207,0.0694 z"
         style="font-style:normal;font-variant:normal;font-weight:normal;font-stretch:normal;font-family:'Copperplate Gothic Bold';-inkscape-font-specification:'Copperplate Gothic Bold, ';fill:#4d4d4d;fill-opacity:1;stroke-width:0.07557334"
         id="path5153"
         inkscape:connector-curvature="0" />
      <path
         d="m 121.17158,155.94652 -0.60223,-1.0347 v 0.93581 q 0,0.0458 0.0207,0.0708 0.0207,0.0236 0.0738,0.0399 v 0.0399 h -0.54909 v -0.0413 q 0.0517,-0.0133 0.0723,-0.0384 0.0221,-0.0251 0.0221,-0.0708 v -1.35206 q 0,-0.0457 -0.0207,-0.0694 -0.0207,-0.0251 -0.0738,-0.0399 v -0.0413 h 0.69817 v 0.0413 q -0.0694,0.0221 -0.0694,0.0841 0,0.0605 0.0502,0.14761 l 0.41182,0.69521 0.41477,-0.68488 q 0.0708,-0.11661 0.0708,-0.16532 0,-0.0605 -0.0723,-0.0768 v -0.0413 h 0.68046 v 0.0413 q -0.0531,0.0148 -0.0738,0.0399 -0.0207,0.0236 -0.0207,0.0694 v 1.35206 q 0,0.0458 0.0207,0.0708 0.0207,0.0251 0.0738,0.0399 v 0.0399 h -0.58452 v -0.0413 q 0.0517,-0.0133 0.0723,-0.0384 0.0221,-0.0251 0.0221,-0.0708 v -0.93581 z"
         style="font-style:normal;font-variant:normal;font-weight:normal;font-stretch:normal;font-family:'Copperplate Gothic Bold';-inkscape-font-specification:'Copperplate Gothic Bold, ';fill:#4d4d4d;fill-opacity:1;stroke-width:0.07557334"
         id="path5155"
         inkscape:connector-curvature="0" />
      <path
         d="m 123.07863,154.49557 v 1.35206 q 0,0.0458 0.0207,0.0708 0.0207,0.0236 0.0738,0.0399 v 0.0399 h -0.58451 v -0.0413 q 0.0517,-0.0133 0.0723,-0.0384 0.0221,-0.0251 0.0221,-0.0708 v -1.35206 q 0,-0.0457 -0.0207,-0.0694 -0.0207,-0.0236 -0.0738,-0.0399 v -0.0413 h 0.58451 v 0.0413 q -0.0531,0.0148 -0.0738,0.0399 -0.0207,0.0236 -0.0207,0.0694 z"
         style="font-style:normal;font-variant:normal;font-weight:normal;font-stretch:normal;font-family:'Copperplate Gothic Bold';-inkscape-font-specification:'Copperplate Gothic Bold, ';fill:#4d4d4d;fill-opacity:1;stroke-width:0.07557334"
         id="path5157"
         inkscape:connector-curvature="0" />
      <path
         d="m 124.37459,154.64465 v 1.20298 q 0,0.0458 0.0207,0.0708 0.0207,0.0236 0.0738,0.0399 v 0.0399 h -0.58451 v -0.0413 q 0.0517,-0.0133 0.0723,-0.0384 0.0221,-0.0251 0.0221,-0.0708 v -1.20298 h -0.48709 q -0.0472,0 -0.0723,0.0221 -0.0236,0.0207 -0.0384,0.0738 h -0.0399 v -0.49005 h 0.0413 q 0.0133,0.0517 0.0369,0.0738 0.0251,0.0207 0.0723,0.0207 h 1.36976 q 0.0472,0 0.0708,-0.0207 0.0251,-0.0207 0.0399,-0.0738 h 0.0399 v 0.49005 h -0.0399 q -0.0148,-0.0531 -0.0399,-0.0738 -0.0236,-0.0221 -0.0708,-0.0221 z"
         style="font-style:normal;font-variant:normal;font-weight:normal;font-stretch:normal;font-family:'Copperplate Gothic Bold';-inkscape-font-specification:'Copperplate Gothic Bold, ';fill:#4d4d4d;fill-opacity:1;stroke-width:0.07557334"
         id="path5159"
         inkscape:connector-curvature="0" />
    </g>
  </g>
</svg>
